<svg width="102" height="86" viewBox="0 0 102 86" fill="none" xmlns="http://www.w3.org/2000/svg">
<path d="M11.0116 0.466553C6.99022 9.86642 8.61422 17.7129 10.0449 22.0126C4.27196 28.1993 0.740723 36.7224 0.740723 48.0749C0.740723 76.174 18.4887 85.5332 51.0074 85.5332C83.5261 85.5332 101.274 76.174 101.274 48.0749C101.278 37.109 97.5416 28.557 91.4941 22.2543C92.3602 20.8314 93.5483 18.0541 93.5483 12.7916C93.5483 4.87649 90.8899 0.466553 90.8899 0.466553C86.7565 0.466553 77.0426 2.13327 69.0116 10.1257C63.3082 8.7066 57.2287 8.19989 51.0149 8.19989C44.9288 8.19989 38.9683 8.53357 33.3733 9.76317C33.0137 9.43063 23.0098 0.466553 11.0116 0.466553ZM31.6892 37.1999C36.7274 37.254 45.0409 39.1294 51.0149 39.1332C56.9889 39.1294 65.2949 37.254 70.3332 37.1999C80.0849 37.1999 85.7998 44.9435 85.7998 54.4942C85.7998 70.1619 76.7397 77.796 51.0225 77.7999H51.0149H50.9998C25.2826 77.796 16.2225 70.1619 16.2225 54.4942C16.2225 44.9435 21.9374 37.1999 31.6892 37.1999ZM33.5998 50.7332C32.0616 50.7332 30.5863 51.548 29.4986 52.9983C28.4109 54.4485 27.7998 56.4155 27.7998 58.4666C27.7998 60.5176 28.4109 62.4846 29.4986 63.9348C30.5863 65.3851 32.0616 66.1999 33.5998 66.1999C35.1381 66.1999 36.6133 65.3851 37.7011 63.9348C38.7888 62.4846 39.3998 60.5176 39.3998 58.4666C39.3998 56.4155 38.7888 54.4485 37.7011 52.9983C36.6133 51.548 35.1381 50.7332 33.5998 50.7332ZM68.3998 50.7332C66.8616 50.7332 65.3863 51.548 64.2986 52.9983C63.2109 54.4485 62.5998 56.4155 62.5998 58.4666C62.5998 60.5176 63.2109 62.4846 64.2986 63.9348C65.3863 65.3851 66.8616 66.1999 68.3998 66.1999C69.9381 66.1999 71.4133 65.3851 72.5011 63.9348C73.5888 62.4846 74.1998 60.5176 74.1998 58.4666C74.1998 56.4155 73.5888 54.4485 72.5011 52.9983C71.4133 51.548 69.9381 50.7332 68.3998 50.7332Z" fill="white"/>
</svg>
