<svg width="118" height="118" viewBox="0 0 118 118" fill="none" xmlns="http://www.w3.org/2000/svg">
<path d="M35.4001 98.3334H15.7334V39.3334H35.4001V98.3334ZM25.5707 31.4667C20.1309 31.4667 15.7334 27.0574 15.7334 21.6294C15.7334 16.2014 20.1387 11.8 25.5707 11.8C30.9908 11.8 35.4001 16.2093 35.4001 21.6294C35.4001 27.0574 30.9908 31.4667 25.5707 31.4667ZM106.2 98.3334H87.2925V69.6201C87.2925 62.7721 87.1627 53.9654 77.4631 53.9654C67.618 53.9654 66.1037 61.423 66.1037 69.1244V98.3334H47.2001V39.2901H65.3485V47.3574H65.6041C68.1293 42.716 74.3007 37.823 83.5047 37.823C102.66 37.823 106.2 50.0517 106.2 65.9503V98.3334Z" fill="white"/>
</svg>
