<svg width="100" height="100" viewBox="0 0 100 100" fill="none" xmlns="http://www.w3.org/2000/svg">
<path d="M28 8C16.9773 8 8 16.9773 8 28V72C8 83.0227 16.9773 92 28 92H72C83.0227 92 92 83.0227 92 72V28C92 16.9773 83.0227 8 72 8H28ZM28 12H72C80.8613 12 88 19.1387 88 28V72C88 80.8613 80.8613 88 72 88H28C19.1387 88 12 80.8613 12 72V28C12 19.1387 19.1387 12 28 12ZM26 30C22.7101 30 20 32.7101 20 36V64C20 67.2899 22.7101 70 26 70H74C77.2899 70 80 67.2899 80 64V36C80 32.7101 77.2899 30 74 30H26ZM26.8281 34H73.168L55.3555 51.7852C52.3699 54.766 47.5937 54.7656 44.6094 51.7812L26.8281 34ZM76 36.8242V63.1758L62.8047 50L76 36.8242ZM24 36.8281L37.1719 50L24 63.1719V36.8281ZM59.9766 52.8242L73.1719 66H26.8281L40 52.8281L41.7812 54.6094C46.293 59.1211 53.6653 59.1244 58.1797 54.6172L59.9766 52.8242Z" fill="white"/>
</svg>
