<svg width="100" height="100" viewBox="0 0 100 100" fill="none" xmlns="http://www.w3.org/2000/svg">
<path d="M93.3336 23.1233C90.1436 24.54 86.7169 25.4933 83.1202 25.9233C86.7936 23.7233 89.6102 20.24 90.9369 16.0866C87.5036 18.1233 83.6969 19.6033 79.6436 20.4033C76.4002 16.9466 71.7802 14.7866 66.6669 14.7866C56.8469 14.7866 48.8869 22.75 48.8869 32.5666C48.8869 33.96 49.0469 35.32 49.3469 36.6166C34.5702 35.8766 21.4702 28.7966 12.6969 18.0366C11.1702 20.6633 10.2936 23.7166 10.2936 26.98C10.2936 33.1466 13.4302 38.59 18.2002 41.7766C15.2869 41.6833 12.5436 40.8833 10.1469 39.5533C10.1469 39.63 10.1469 39.7 10.1469 39.7766C10.1469 48.3933 16.2736 55.58 24.4102 57.21C22.9202 57.6166 21.3469 57.8333 19.7236 57.8333C18.5802 57.8333 17.4636 57.7199 16.3802 57.5166C18.6436 64.5799 25.2102 69.7233 32.9902 69.8666C26.9069 74.6366 19.2402 77.4799 10.9069 77.4799C9.47357 77.4799 8.05691 77.3966 6.66357 77.23C14.5336 82.2733 23.8769 85.2166 33.9202 85.2166C66.6269 85.2166 84.5069 58.1233 84.5069 34.6266C84.5069 33.8566 84.4902 33.09 84.4569 32.3266C87.9336 29.8166 90.9502 26.6866 93.3336 23.1233Z" fill="white"/>
</svg>
